<svg fill="#000000" height="200px" width="200px" version="1.1" id="Capa_1" xmlns="http://www.w3.org/2000/svg" xmlns:xlink="http://www.w3.org/1999/xlink" viewBox="0 0 201.942 201.942" xml:space="preserve"><g id="SVGRepo_bgCarrier" stroke-width="0"></g><g id="SVGRepo_tracerCarrier" stroke-linecap="round" stroke-linejoin="round"></g><g id="SVGRepo_iconCarrier"> <path d="M181.542,33.229L149.778,1.465C148.84,0.526,147.568,0,146.242,0H23.936c-2.761,0-5,2.238-5,5v57.861c0,2.762,2.239,5,5,5 h6.937v14.229h-6.937c-2.761,0-5,2.238-5,5v109.852c0,2.762,2.239,5,5,5h154.07c2.761,0,5-2.238,5-5V36.765 C183.006,35.438,182.479,34.167,181.542,33.229z M156.294,105.972v66.967H45.649v-66.967H156.294z M127.094,11.956h16.289v26.47 h-16.289V11.956z M103.067,11.956h16.289v26.47h-16.289V11.956z M79.04,11.956H95.33v26.47H79.04V11.956z M55.013,11.956h16.289 v26.47H55.013V11.956z M30.986,11.956h16.289v26.47H30.986V11.956z M58.158,126.276c0-2.762,2.239-5,5-5h72.081c2.761,0,5,2.238,5,5 s-2.239,5-5,5H63.158C60.397,131.276,58.158,129.038,58.158,126.276z M58.158,151.942c0-2.762,2.239-5,5-5h51.529 c2.761,0,5,2.238,5,5s-2.239,5-5,5H63.158C60.397,156.942,58.158,154.704,58.158,151.942z"></path> </g></svg>